<mxfile host="app.diagrams.net" modified="2023-11-01T21:59:05.869Z" agent="Mozilla/5.0 (Macintosh; Intel Mac OS X 10_15_7) AppleWebKit/537.36 (KHTML, like Gecko) Chrome/118.0.0.0 Safari/537.36" version="22.0.8" etag="mx6V25K9XmIyG5dpJyd3" type="github">
  <diagram name="Page-1" id="NYZ9kjaSMGqtsROipDQ3">
    <mxGraphModel>
      <root>
        <mxCell id="0" />
        <mxCell id="1" parent="0" />
      </root>
    </mxGraphModel>
  </diagram>
</mxfile>
